<svg width="159" height="156" viewBox="0 0 159 156" fill="none" xmlns="http://www.w3.org/2000/svg">
<g style="mix-blend-mode:multiply">
<path d="M0 0H159L0 156V0Z" fill="url(#paint0_linear_1005_1412)"/>
</g>
<path d="M64.7198 25C66.6966 25.0001 71.6558 26.7133 73.2853 31.8525C74.6641 36.2011 72.8903 39.6275 71.8361 40.9453C73.2418 41.824 76.0263 44.6351 75.921 48.8516C75.7892 54.1227 72.0992 58.999 66.3009 58.999H55.0997V25H64.7198ZM61.5568 45.5576V52.4102H65.9054C67.7977 52.4102 69.3312 50.8757 69.3312 48.9834C69.331 47.0913 67.7975 45.5576 65.9054 45.5576H61.5568ZM61.6886 38.4414H64.0607C65.9529 38.4414 67.4874 36.9079 67.4874 35.0156C67.4874 33.1234 65.9529 31.5889 64.0607 31.5889H61.6886V38.4414Z" fill="white"/>
<path d="M87.9126 25C89.8894 25.0001 94.8485 26.7133 96.478 31.8525C97.8568 36.2011 96.083 39.6275 95.0288 40.9453C96.4345 41.824 99.219 44.6352 99.1138 48.8516C98.982 54.1227 95.2919 58.999 89.4937 58.999H78.2925V25H87.9126ZM84.7495 45.5576V52.4102H89.0981C90.9904 52.4102 92.5249 50.8757 92.5249 48.9834C92.5247 47.0913 90.9903 45.5576 89.0981 45.5576H84.7495ZM84.8813 38.4414H87.2534C89.1457 38.4414 90.6802 36.9079 90.6802 35.0156C90.6802 33.1234 89.1457 31.5889 87.2534 31.5889H84.8813V38.4414Z" fill="white"/>
<path d="M38.6648 31.3201L33.5583 58.9984H24L34.3439 25.3145H43.1166L53.5915 58.9984H43.7713L38.6648 31.3201Z" fill="white"/>
<path d="M113.555 47.9888V58.9984H106.145V47.9888L96.0899 25.3145H105.748L109.85 42.7462L114.084 25.3145H123.478L113.555 47.9888Z" fill="white"/>
<defs>
<linearGradient id="paint0_linear_1005_1412" x1="80" y1="71" x2="6.75256" y2="-14.1597" gradientUnits="userSpaceOnUse">
<stop stop-opacity="0"/>
<stop offset="1" stop-opacity="0.43"/>
</linearGradient>
</defs>
</svg>
