<svg width="34" height="32" viewBox="0 0 34 32" fill="none" xmlns="http://www.w3.org/2000/svg">
<path d="M5.85395 14.0684L2.08925 10.7L32.405 10.3037L28.244 14.0684L33.0985 15.9508L28.244 18.1303L32.405 21.5978L26.857 21.895L29.4329 26.3532L24.2812 24.57L25.0738 30.217L20.8137 26.9477L19.823 32.0003L16.8509 27.443L14.0769 32.0003L12.9871 26.9477L8.72702 30.217L9.71773 24.57L4.6651 26.3532L7.24095 21.5978H1.69296L5.85395 18.1303L0.900391 15.9508L5.85395 14.0684Z" fill="#01A468"/>
<path d="M28.1451 17.9321L31.9098 21.3005L1.59399 21.6968L5.75498 17.9321L0.90049 16.0497L5.75498 13.8702L1.59399 10.4027L7.14198 10.1054L4.56612 5.64724L9.71783 7.43052L8.92526 1.78346L13.1853 5.05281L14.176 0.000183105L17.1482 4.55746L19.9222 0.000183105L21.0119 5.05281L25.272 1.78346L24.2813 7.43052L29.3339 5.64724L26.7581 10.4027H32.3061L28.1451 13.8702L33.0986 16.0497L28.1451 17.9321Z" fill="#01A468"/>
</svg>
