<svg width="79" height="83" viewBox="0 0 79 83" fill="none" xmlns="http://www.w3.org/2000/svg">
<path d="M31 27H7V12C7 5.37258 12.3726 0 19 0C25.6274 0 31 5.37258 31 12V27Z" fill="#E1E1E1"/>
<path d="M72 27H48V19C48 12.3726 53.3726 7 60 7C66.6274 7 72 12.3726 72 19V27Z" fill="#E1E1E1"/>
<path d="M0 43C-9.15845e-07 53.6087 4.16159 63.7828 11.5693 71.2843C18.977 78.7857 29.0239 83 39.5 83C49.976 83 60.023 78.7857 67.4307 71.2843C74.8384 63.7828 79 53.6087 79 43H64.6945C64.6945 49.7666 62.0401 56.256 57.3152 61.0407C52.5903 65.8254 46.182 68.5134 39.5 68.5134C32.818 68.5134 26.4097 65.8254 21.6848 61.0407C16.9599 56.256 14.3055 49.7666 14.3055 43H0Z" fill="#E1E1E1"/>
</svg>
