<svg width="28" height="29" viewBox="0 0 28 29" fill="none" xmlns="http://www.w3.org/2000/svg">
<path d="M9.10004 2.83398H18.9C22.6334 2.83398 25.6667 5.86732 25.6667 9.60065V19.4007C25.6667 21.1953 24.9538 22.9164 23.6848 24.1854C22.4158 25.4544 20.6947 26.1673 18.9 26.1673H9.10004C5.36671 26.1673 2.33337 23.134 2.33337 19.4007V9.60065C2.33337 7.80602 3.04629 6.08489 4.31529 4.8159C5.58428 3.5469 7.30541 2.83398 9.10004 2.83398ZM8.86671 5.16732C7.7528 5.16732 6.68451 5.60982 5.89686 6.39747C5.10921 7.18512 4.66671 8.25341 4.66671 9.36732V19.634C4.66671 21.9557 6.54504 23.834 8.86671 23.834H19.1334C20.2473 23.834 21.3156 23.3915 22.1032 22.6038C22.8909 21.8162 23.3334 20.7479 23.3334 19.634V9.36732C23.3334 7.04565 21.455 5.16732 19.1334 5.16732H8.86671ZM20.125 6.91732C20.5118 6.91732 20.8827 7.07096 21.1562 7.34445C21.4297 7.61794 21.5834 7.98888 21.5834 8.37565C21.5834 8.76243 21.4297 9.13336 21.1562 9.40685C20.8827 9.68034 20.5118 9.83398 20.125 9.83398C19.7383 9.83398 19.3673 9.68034 19.0938 9.40685C18.8204 9.13336 18.6667 8.76243 18.6667 8.37565C18.6667 7.98888 18.8204 7.61794 19.0938 7.34445C19.3673 7.07096 19.7383 6.91732 20.125 6.91732ZM14 8.66732C15.5471 8.66732 17.0309 9.2819 18.1248 10.3759C19.2188 11.4698 19.8334 12.9536 19.8334 14.5007C19.8334 16.0477 19.2188 17.5315 18.1248 18.6254C17.0309 19.7194 15.5471 20.334 14 20.334C12.4529 20.334 10.9692 19.7194 9.87525 18.6254C8.78129 17.5315 8.16671 16.0477 8.16671 14.5007C8.16671 12.9536 8.78129 11.4698 9.87525 10.3759C10.9692 9.2819 12.4529 8.66732 14 8.66732ZM14 11.0007C13.0718 11.0007 12.1815 11.3694 11.5252 12.0258C10.8688 12.6822 10.5 13.5724 10.5 14.5007C10.5 15.4289 10.8688 16.3191 11.5252 16.9755C12.1815 17.6319 13.0718 18.0007 14 18.0007C14.9283 18.0007 15.8185 17.6319 16.4749 16.9755C17.1313 16.3191 17.5 15.4289 17.5 14.5007C17.5 13.5724 17.1313 12.6822 16.4749 12.0258C15.8185 11.3694 14.9283 11.0007 14 11.0007Z" fill="black"/>
</svg>
