<svg width="42" height="44" viewBox="0 0 42 44" fill="none" xmlns="http://www.w3.org/2000/svg">
<path d="M20.832 0.719326C18.6697 0.83313 20.0353 14.3758 18.1007 15.0586C16.166 15.7414 7.17552 5.72669 6.15131 7.09233C5.12709 8.45798 14.9142 18.1313 14.2314 19.0417C13.5486 19.9521 0.34732 20.8626 0.00590895 22.1144C-0.335502 23.3663 14.2314 24.8457 14.2314 24.8457H27.6602C27.6602 24.8457 41.8857 23.3663 41.9995 21.6592C42.1133 19.9521 27.6602 20.2936 27.6602 19.0417C27.6602 17.7899 37.2197 7.77515 35.9679 7.09233C34.716 6.40951 25.0427 15.0586 23.6771 15.0586C22.3114 15.0586 22.9942 0.605522 20.832 0.719326Z" fill="#5F90FF"/>
<path d="M21.168 43.2812C23.3303 43.1674 21.9647 29.6247 23.8993 28.9419C25.834 28.2591 34.8245 38.2738 35.8487 36.9082C36.8729 35.5425 27.0858 25.8692 27.7686 24.9588C28.4514 24.0483 41.6527 23.1379 41.9941 21.8861C42.3355 20.6342 27.7686 19.1548 27.7686 19.1548L14.3398 19.1548C14.3398 19.1548 0.114346 20.6342 0.000541966 22.3413C-0.113262 24.0483 14.3398 23.7069 14.3398 24.9588C14.3398 26.2106 4.7803 36.2253 6.03214 36.9082C7.28398 37.591 16.9573 28.9419 18.3229 28.9419C19.6886 28.9419 19.0058 43.395 21.168 43.2812Z" fill="#5F90FF"/>
</svg>
