<svg width="50" height="51" viewBox="0 0 50 51" fill="none" xmlns="http://www.w3.org/2000/svg">
<path d="M25 2.125C12.09 2.125 1.625 12.59 1.625 25.5C1.625 38.41 12.09 48.875 25 48.875C37.91 48.875 48.375 38.41 48.375 25.5C48.375 12.59 37.91 2.125 25 2.125Z" stroke="black" stroke-width="3" stroke-linecap="round" stroke-linejoin="round"/>
<path d="M6.93359 40.3334C6.93359 40.3334 12.1439 33.6809 25.0001 33.6809C37.8564 33.6809 43.069 40.3334 43.069 40.3334M25.0001 25.4996C26.86 25.4996 28.6436 24.7608 29.9587 23.4457C31.2738 22.1306 32.0126 20.3469 32.0126 18.4871C32.0126 16.6273 31.2738 14.8436 29.9587 13.5285C28.6436 12.2134 26.86 11.4746 25.0001 11.4746C23.1403 11.4746 21.3566 12.2134 20.0415 13.5285C18.7264 14.8436 17.9876 16.6273 17.9876 18.4871C17.9876 20.3469 18.7264 22.1306 20.0415 23.4457C21.3566 24.7608 23.1403 25.4996 25.0001 25.4996Z" stroke="black" stroke-width="3" stroke-linecap="round" stroke-linejoin="round"/>
</svg>
