<svg width="44" height="42" viewBox="0 0 44 42" fill="none" xmlns="http://www.w3.org/2000/svg">
<path d="M21.5956 0.0251235C25.8814 -0.284038 28.5348 2.28501 29.9065 6.35716C30.7843 8.96311 29.202 11.9389 27.1901 14.4282L23.9668 19.0212L27.9243 16.251L31.4861 27.7278L24.3626 22.9788L27.1328 26.9363L15.656 29.7066L20.0093 22.9788L15.2603 26.1448V15.8552L18.822 18.2297L17.694 15.8552C15.3783 13.1011 13.0722 9.39318 14.0732 6.35716C15.3071 2.61503 17.6655 0.308623 21.5956 0.0251235Z" fill="#BB7CD2"/>
<path d="M37.0266 28.7625C31.2177 30.7192 23.571 20.4516 23.571 20.4516C23.571 20.4516 31.4375 11.0863 37.0266 12.9292C40.7688 14.163 43.0752 16.5215 43.3587 20.4516C43.6678 24.7374 41.0988 27.3908 37.0266 28.7625Z" fill="#BB7CD2"/>
<path d="M14.3201 35.6428C12.3634 29.8339 22.631 22.1873 22.631 22.1873C22.631 22.1873 31.9962 30.0537 30.1533 35.6428C28.9195 39.385 26.561 41.6914 22.631 41.9749C18.3451 42.284 15.6917 39.715 14.3201 35.6428Z" fill="#BB7CD2"/>
<path d="M6.97435 12.9372C12.7833 10.9805 20.4299 21.2481 20.4299 21.2481C20.4299 21.2481 12.5635 30.6134 6.97435 28.7705C3.23222 27.5367 0.92581 25.1782 0.642311 21.2481C0.33315 16.9623 2.9022 14.3089 6.97435 12.9372Z" fill="#BB7CD2"/>
</svg>
