<svg width="40" height="40" viewBox="0 0 40 40" fill="none" xmlns="http://www.w3.org/2000/svg">
<path d="M22.7185 10.8892C27.9991 10.6112 34.791 5.33058 34.791 5.33058L40 14.0815C40 14.0815 31.3343 17.8374 28.8329 22.5622C29.3888 28.3987 35.2253 34.791 35.2253 34.791L26.4743 40C26.4743 40 23.2743 32.2897 18.5496 28.6766C12.991 28.6766 5.20953 34.791 5.20953 34.791L0 26.0401C0 26.0401 8.82206 21.5981 11.8793 18.1153C11.8793 12.5567 5.76485 5.20953 5.76485 5.20953L14.5158 0C14.5158 0 17.9937 8.10987 22.7185 10.8892Z" fill="#691F13"/>
</svg>
