<svg width="120" height="67" viewBox="0 0 120 67" fill="none" xmlns="http://www.w3.org/2000/svg">
<path d="M90 33.5C90 50.3447 76.5685 64 60 64C43.4315 64 30 50.3447 30 33.5C30 16.6553 43.4315 3 60 3C76.5685 3 90 16.6553 90 33.5ZM46.6094 33.5C46.6094 41.0187 52.6046 47.1138 60 47.1138C67.3954 47.1138 73.3906 41.0187 73.3906 33.5C73.3906 25.9813 67.3954 19.8862 60 19.8862C52.6046 19.8862 46.6094 25.9813 46.6094 33.5Z" fill="black"/>
<path d="M-9.99191e-07 22.8588L46 2.01072e-06L46 21.6765L8.7619 33.1059L46 46.9L46 67L-1.91224e-06 43.7471L-9.99191e-07 22.8588Z" fill="black"/>
<path d="M120 22.8588L74 2.01072e-06L74 21.6765L111.238 33.1059L74 46.9L74 67L120 43.7471L120 22.8588Z" fill="black"/>
</svg>
