<svg width="26" height="26" viewBox="0 0 26 26" fill="none" xmlns="http://www.w3.org/2000/svg">
<path d="M13 2.84375C7.39984 2.84375 2.84375 7.39984 2.84375 13C2.84375 18.6002 7.39984 23.1562 13 23.1562C18.6002 23.1562 23.1562 18.6002 23.1562 13C23.1562 7.39984 18.6002 2.84375 13 2.84375ZM13 7.00781C13.2611 7.00781 13.5164 7.08525 13.7335 7.23033C13.9507 7.3754 14.1199 7.58161 14.2198 7.82286C14.3197 8.06412 14.3459 8.32959 14.2949 8.5857C14.244 8.84182 14.1183 9.07708 13.9336 9.26173C13.749 9.44638 13.5137 9.57212 13.2576 9.62307C13.0015 9.67401 12.736 9.64787 12.4947 9.54794C12.2535 9.448 12.0473 9.27878 11.9022 9.06165C11.7571 8.84453 11.6797 8.58926 11.6797 8.32812C11.6797 7.97796 11.8188 7.64213 12.0664 7.39452C12.314 7.14692 12.6498 7.00781 13 7.00781ZM16.25 18.4844H10.1562V16.8594H12.3906V12.3906H10.7656V10.7656H14.0156V16.8594H16.25V18.4844Z" fill="#5F90FF"/>
</svg>
