<svg width="18" height="23" viewBox="0 0 18 23" fill="none" xmlns="http://www.w3.org/2000/svg">
<circle cx="9" cy="11.5" r="8.5" fill="white" stroke="black"/>
<path d="M7.873 13.658C7.873 13.0913 7.94667 12.638 8.094 12.298C8.24133 11.958 8.536 11.6293 8.978 11.312L9.845 10.7C10.219 10.428 10.5023 10.1277 10.695 9.799C10.8877 9.459 10.984 9.051 10.984 8.575C10.984 8.00833 10.8027 7.54933 10.44 7.198C10.0887 6.84667 9.607 6.671 8.995 6.671C8.29233 6.671 7.73133 6.88067 7.312 7.3C6.904 7.71933 6.7 8.32 6.7 9.102H5.153C5.153 7.912 5.49867 6.98267 6.19 6.314C6.89267 5.64533 7.85033 5.311 9.063 5.311C10.1737 5.311 11.035 5.61133 11.647 6.212C12.2703 6.80133 12.582 7.572 12.582 8.524C12.582 9.204 12.4347 9.782 12.14 10.258C11.8453 10.7227 11.426 11.1647 10.882 11.584L10.151 12.111C9.83367 12.349 9.61833 12.5757 9.505 12.791C9.39167 12.995 9.335 13.2783 9.335 13.641V13.93H7.873V13.658ZM8.604 17.619C8.25267 17.619 7.958 17.5 7.72 17.262C7.482 17.0127 7.363 16.718 7.363 16.378C7.363 16.038 7.482 15.749 7.72 15.511C7.958 15.2617 8.25267 15.137 8.604 15.137C8.944 15.137 9.233 15.2617 9.471 15.511C9.72033 15.749 9.845 16.038 9.845 16.378C9.845 16.718 9.72033 17.0127 9.471 17.262C9.233 17.5 8.944 17.619 8.604 17.619Z" fill="black"/>
</svg>
