<svg width="94" height="95" viewBox="0 0 94 95" fill="none" xmlns="http://www.w3.org/2000/svg">
<path d="M65.9414 71.7651L40.6643 59.4076L44.3158 50.6013L70.9207 59.7565L65.9414 71.7651Z" fill="black"/>
<path d="M94 47.5C94 73.7335 72.9574 95 47 95C21.0426 95 0 73.7335 0 47.5C0 21.2665 21.0426 0 47 0C72.9574 0 94 21.2665 94 47.5ZM12.0482 47.5C12.0482 67.0087 27.6966 82.8237 47 82.8237C66.3034 82.8237 81.9518 67.0087 81.9518 47.5C81.9518 27.9913 66.3034 12.1763 47 12.1763C27.6966 12.1763 12.0482 27.9913 12.0482 47.5Z" fill="black"/>
<path d="M39 17L40.7333 60L50.2667 60L52 17L39 17Z" fill="black"/>
</svg>
